<svg width="1800" height="1822" viewBox="0 0 1800 1822" fill="none" xmlns="http://www.w3.org/2000/svg">
<path d="M1702.39 1245.78C1535.37 1647.14 1090.45 1871.98 704.611 1811.33C641.828 1801.46 469.707 1772.07 317.317 1633.37C23.9561 1366.38 -38.7813 837.7 197.864 465.126C370.1 193.958 678.851 40.241 972.225 47.9301C1035.42 49.586 1277.6 59.7935 1490.43 238.899C1521.69 265.205 1590.64 327.718 1652.78 426.891C1798.7 659.765 1811.24 984.21 1702.39 1245.78Z" fill="#EDEDED"/>
<path d="M9.91245 1170.89C38.4302 1048.46 131.683 952.35 250.4 922.958C332.018 902.751 410.324 913.594 476.511 946.338C498.463 957.198 524.55 944.904 530.633 920.59C589.141 686.705 795.058 513.917 1040.12 513.917C1330.71 513.917 1566.27 756.86 1566.27 1056.54C1566.27 1064.5 1566.12 1075.36 1565.98 1085.79C1567.01 1108.2 1576.5 1117.72 1590.66 1120.11C1704.51 1132.33 1793.99 1229.12 1798.95 1348.51C1804.65 1485.6 1696.47 1599.17 1563.42 1599.17H332.789C122.122 1599.17 -42.8255 1397.29 9.91245 1170.89Z" fill="black"/>
<path opacity="0.21" d="M105.223 1216.77C130.686 1107.46 213.949 1021.64 319.947 995.402C392.822 977.359 462.738 987.041 521.835 1016.28C541.435 1025.97 564.728 1015 570.158 993.288C622.398 784.459 806.255 630.183 1025.06 630.183C1284.52 630.183 1494.85 847.098 1494.85 1114.68C1494.85 1121.78 1494.71 1131.48 1494.59 1140.79C1495.51 1160.8 1503.98 1169.3 1516.62 1171.43C1618.28 1182.34 1698.17 1268.77 1702.6 1375.37C1707.69 1497.76 1611.09 1599.17 1492.3 1599.17H393.51C205.412 1599.17 58.1358 1418.92 105.223 1216.77Z" fill="#8C8C8C"/>
<path d="M248.11 1745.83C248.11 1755.86 256.278 1764.07 266.261 1764.07H1247.84C1257.82 1764.07 1265.99 1755.86 1265.99 1745.83L1274.16 1178.45C1274.16 1168.42 1262.41 1148.83 1240.87 1150.3L281.566 1125.34C269.04 1125.01 256.928 1129.86 248.058 1138.75C239.187 1147.64 234.334 1159.8 234.63 1172.39L248.11 1745.83Z" fill="black"/>
<path d="M266.03 1728.33C266.03 1737.83 273.758 1745.6 283.203 1745.6H1224.17C1233.61 1745.6 1241.34 1737.83 1241.34 1728.33L1249.05 1213.26C1248.14 1182.26 1221.12 1171.12 1204.75 1171.78L285.339 1146.97C276.539 1146.73 268.03 1150.14 261.797 1156.39C255.564 1162.65 252.136 1171.2 252.357 1180.06L266.03 1728.33Z" fill="#8C8C8C"/>
<path d="M1231.17 1483.63C1231.16 1483.63 1231.15 1483.63 1231.15 1483.63C1229.75 1483.61 1228.64 1482.46 1228.66 1481.06L1229.27 1439.29C1229.29 1437.91 1230.41 1436.8 1231.78 1436.8C1231.79 1436.8 1231.81 1436.8 1231.81 1436.8C1233.21 1436.82 1234.32 1437.97 1234.3 1439.37L1233.69 1481.14C1233.67 1482.52 1232.55 1483.63 1231.17 1483.63Z" fill="#EDEDED"/>
<path d="M1232.67 1381.27C1232.67 1381.27 1232.64 1381.27 1232.63 1381.27C1231.24 1381.25 1230.13 1380.1 1230.15 1378.7L1232.49 1218.71C1232.44 1209.21 1229.58 1201.62 1223.96 1196.21C1213.48 1186.12 1196.85 1186.63 1196.15 1186.67L902.286 1178.74C900.897 1178.7 899.8 1177.54 899.838 1176.14C899.874 1174.74 900.942 1173.55 902.421 1173.68L1196.11 1181.61C1197.94 1181.5 1215.65 1181.19 1227.44 1192.56C1234.08 1198.95 1237.47 1207.76 1237.52 1218.74L1235.18 1378.78C1235.16 1380.16 1234.04 1381.27 1232.67 1381.27Z" fill="#EDEDED"/>
<path d="M172.136 1811.17H1322.07C1324.08 1811.17 1325.72 1809.51 1325.72 1807.49V1764.99C1325.72 1762.97 1324.08 1761.31 1322.07 1761.31H172.136C170.125 1761.31 168.479 1762.97 168.479 1764.99V1807.49C168.48 1809.51 170.125 1811.17 172.136 1811.17Z" fill="black"/>
<path d="M674.264 1720.47H311.968C298.61 1720.47 287.781 1709.58 287.781 1696.14V1220.48C287.781 1206.68 299.183 1195.64 312.893 1196.17L675.188 1210.11C688.177 1210.61 698.45 1221.35 698.45 1234.42V1696.14C698.451 1709.58 687.622 1720.47 674.264 1720.47Z" fill="#8C8C8C"/>
<path opacity="0.51" d="M602.202 1414.85H362.223C360.319 1414.85 358.774 1413.29 358.774 1411.38V1386.24C358.774 1384.32 360.319 1382.77 362.223 1382.77H602.202C604.107 1382.77 605.651 1384.32 605.651 1386.24V1411.38C605.652 1413.29 604.107 1414.85 602.202 1414.85Z" fill="#EDEDED"/>
<path opacity="0.51" d="M602.688 1466.07H362.708C360.804 1466.07 359.26 1464.52 359.26 1462.6V1437.46C359.26 1435.55 360.804 1433.99 362.708 1433.99H602.688C604.593 1433.99 606.136 1435.55 606.136 1437.46V1462.6C606.137 1464.52 604.593 1466.07 602.688 1466.07Z" fill="#EDEDED"/>
<path opacity="0.51" d="M604.134 1518.38H364.155C362.25 1518.38 360.706 1516.82 360.706 1514.91V1489.76C360.706 1487.85 362.25 1486.3 364.155 1486.3H604.134C606.039 1486.3 607.583 1487.85 607.583 1489.76V1514.91C607.583 1516.82 606.039 1518.38 604.134 1518.38Z" fill="#EDEDED"/>
<path opacity="0.51" d="M604.62 1569.6H364.641C362.736 1569.6 361.192 1568.05 361.192 1566.13V1540.99C361.192 1539.08 362.737 1537.52 364.641 1537.52H604.62C606.525 1537.52 608.069 1539.08 608.069 1540.99V1566.13C608.069 1568.05 606.525 1569.6 604.62 1569.6Z" fill="#EDEDED"/>
<path opacity="0.51" d="M1128.5 1414.81H780.462C778.557 1414.81 777.014 1413.25 777.014 1411.34V1386.2C777.014 1384.28 778.558 1382.73 780.462 1382.73H1128.5C1130.41 1382.73 1131.95 1384.28 1131.95 1386.2V1411.34C1131.95 1413.25 1130.41 1414.81 1128.5 1414.81Z" fill="#EDEDED"/>
<path opacity="0.51" d="M1129.6 1466.07H781.56C779.655 1466.07 778.111 1464.52 778.111 1462.6V1437.46C778.111 1435.55 779.655 1433.99 781.56 1433.99H1129.6C1131.5 1433.99 1133.05 1435.55 1133.05 1437.46V1462.6C1133.05 1464.52 1131.5 1466.07 1129.6 1466.07Z" fill="#EDEDED"/>
<path opacity="0.51" d="M984.981 1518.38H781.56C779.655 1518.38 778.111 1516.82 778.111 1514.91V1489.76C778.111 1487.85 779.655 1486.3 781.56 1486.3H984.981C986.885 1486.3 988.429 1487.85 988.429 1489.76V1514.91C988.429 1516.82 986.885 1518.38 984.981 1518.38Z" fill="#EDEDED"/>
<g opacity="0.51">
<path d="M965.432 1263.17H960.025C957.341 1263.17 955.165 1260.98 955.165 1258.28V1239.69C955.165 1233.04 949.802 1227.65 943.188 1227.65H909.688C903.073 1227.65 897.711 1233.04 897.711 1239.69V1258.28C897.711 1260.98 895.535 1263.17 892.85 1263.17H887.444C884.759 1263.17 882.583 1260.98 882.583 1258.28V1239.69C882.583 1224.63 894.718 1212.43 909.689 1212.43H943.189C958.159 1212.43 970.294 1224.63 970.294 1239.69V1258.28C970.293 1260.98 968.116 1263.17 965.432 1263.17Z" fill="#EDEDED"/>
<path d="M972.133 1267.56H880.741C875.141 1267.56 870.601 1272.12 870.601 1277.76V1348.3C870.601 1353.94 875.141 1358.5 880.741 1358.5H972.133C977.734 1358.5 982.274 1353.94 982.274 1348.3V1277.76C982.274 1272.12 977.734 1267.56 972.133 1267.56ZM939.513 1335.74C940.081 1338.12 938.29 1340.4 935.861 1340.4H917.014C914.584 1340.4 912.794 1338.12 913.362 1335.74L917.759 1317.33C912.568 1314.21 909.175 1308.37 909.522 1301.77C909.971 1293.22 916.86 1286.22 925.356 1285.69C935.202 1285.08 943.378 1292.92 943.378 1302.7C943.378 1308.92 940.064 1314.35 935.116 1317.33L939.513 1335.74Z" fill="#EDEDED"/>
</g>
<path d="M1231.47 439.551C1231.11 439.551 1230.74 439.463 1230.41 439.275C1229.36 438.688 1228.98 437.356 1229.57 436.299C1230.97 433.763 1232.32 431.21 1233.64 428.639C1234.19 427.566 1235.5 427.147 1236.58 427.698C1237.64 428.252 1238.06 429.573 1237.51 430.649C1236.17 433.258 1234.79 435.85 1233.37 438.424C1232.97 439.145 1232.23 439.551 1231.47 439.551Z" fill="#8C8C8C"/>
<path d="M976.803 590.316C975.517 590.316 974.233 590.308 972.947 590.291C971.745 590.274 970.785 589.281 970.799 588.071C970.816 586.873 971.788 585.911 972.977 585.911H973.006C978.638 585.988 984.325 585.894 989.946 585.637C991.066 585.56 992.165 586.516 992.218 587.726C992.274 588.934 991.343 589.956 990.141 590.012C985.719 590.213 981.232 590.316 976.803 590.316ZM945.297 588.607C945.218 588.607 945.14 588.603 945.061 588.594C939.374 587.975 933.643 587.181 928.026 586.233C926.84 586.032 926.04 584.903 926.238 583.713C926.436 582.52 927.565 581.707 928.745 581.914C934.28 582.849 939.927 583.631 945.528 584.241C946.723 584.371 947.589 585.451 947.459 586.652C947.338 587.776 946.394 588.607 945.297 588.607ZM1017.66 587.433C1016.59 587.433 1015.66 586.642 1015.5 585.55C1015.34 584.352 1016.16 583.245 1017.36 583.076C1022.93 582.287 1028.55 581.32 1034.06 580.204C1035.22 579.967 1036.38 580.734 1036.62 581.919C1036.86 583.104 1036.09 584.259 1034.92 584.498C1029.32 585.632 1023.62 586.611 1017.96 587.413C1017.86 587.427 1017.76 587.433 1017.66 587.433ZM901.288 580.356C901.101 580.356 900.912 580.332 900.725 580.281C895.208 578.799 889.665 577.134 884.249 575.331C883.107 574.952 882.488 573.712 882.867 572.564C883.243 571.418 884.468 570.797 885.617 571.174C890.953 572.949 896.413 574.591 901.847 576.051C903.009 576.364 903.699 577.563 903.388 578.731C903.13 579.71 902.249 580.356 901.288 580.356ZM1061.38 577.736C1060.45 577.736 1059.58 577.126 1059.3 576.181C1058.95 575.024 1059.6 573.802 1060.75 573.451C1066.15 571.807 1071.55 569.982 1076.82 568.031C1077.94 567.614 1079.2 568.193 1079.61 569.329C1080.03 570.464 1079.45 571.722 1078.32 572.14C1072.97 574.123 1067.49 575.975 1062.01 577.642C1061.8 577.706 1061.59 577.736 1061.38 577.736ZM859.051 565.424C858.757 565.424 858.46 565.364 858.175 565.238C852.941 562.918 847.72 560.414 842.653 557.798C841.584 557.247 841.163 555.925 841.712 554.849C842.263 553.778 843.57 553.35 844.644 553.903C849.633 556.479 854.776 558.944 859.931 561.231C861.033 561.718 861.53 563.012 861.045 564.117C860.685 564.936 859.888 565.424 859.051 565.424ZM1103.1 561.384C1102.29 561.384 1101.51 560.929 1101.14 560.144C1100.62 559.056 1101.07 557.747 1102.16 557.221C1107.22 554.768 1112.28 552.128 1117.2 549.371C1118.26 548.785 1119.58 549.164 1120.16 550.22C1120.75 551.276 1120.37 552.611 1119.32 553.199C1114.32 555.996 1109.19 558.677 1104.04 561.168C1103.74 561.316 1103.42 561.384 1103.1 561.384ZM819.619 544.132C819.218 544.132 818.809 544.021 818.445 543.785C813.639 540.685 808.864 537.4 804.253 534.026C803.281 533.314 803.067 531.946 803.774 530.966C804.484 529.989 805.845 529.775 806.816 530.485C811.355 533.81 816.06 537.043 820.797 540.098C821.809 540.751 822.102 542.106 821.454 543.124C821.037 543.777 820.335 544.132 819.619 544.132ZM1141.82 538.75C1141.12 538.75 1140.44 538.421 1140.02 537.805C1139.34 536.809 1139.59 535.444 1140.58 534.758C1145.21 531.544 1149.81 528.15 1154.24 524.669C1155.19 523.927 1156.56 524.096 1157.3 525.05C1158.04 526.003 1157.87 527.38 1156.92 528.125C1152.42 531.655 1147.75 535.1 1143.05 538.363C1142.67 538.624 1142.24 538.75 1141.82 538.75ZM783.929 516.982C783.414 516.982 782.9 516.8 782.486 516.432C778.225 512.639 774.005 508.657 769.947 504.596C769.095 503.743 769.09 502.357 769.939 501.5C770.787 500.645 772.164 500.638 773.016 501.492C777.015 505.49 781.174 509.414 785.372 513.152C786.272 513.954 786.356 515.337 785.559 516.244C785.128 516.732 784.53 516.982 783.929 516.982ZM1176.64 510.409C1176.06 510.409 1175.49 510.178 1175.06 509.723C1174.23 508.842 1174.27 507.456 1175.15 506.626C1179.24 502.738 1183.28 498.686 1187.13 494.578C1187.96 493.702 1189.34 493.663 1190.21 494.489C1191.08 495.321 1191.12 496.706 1190.3 497.585C1186.39 501.753 1182.29 505.867 1178.14 509.812C1177.72 510.21 1177.18 510.409 1176.64 510.409ZM752.754 484.653C752.13 484.653 751.511 484.383 751.079 483.864C747.431 479.459 743.859 474.88 740.462 470.257C739.747 469.284 739.954 467.914 740.919 467.193C741.893 466.475 743.251 466.685 743.965 467.653C747.312 472.21 750.83 476.722 754.425 481.062C755.195 481.991 755.069 483.372 754.145 484.146C753.738 484.485 753.245 484.653 752.754 484.653ZM1206.77 477.109C1206.31 477.109 1205.84 476.959 1205.44 476.647C1204.49 475.905 1204.32 474.528 1205.06 473.574C1208.52 469.094 1211.89 464.469 1215.07 459.827C1215.75 458.83 1217.11 458.578 1218.1 459.262C1219.09 459.948 1219.34 461.313 1218.66 462.307C1215.43 467.022 1212.01 471.718 1208.49 476.264C1208.06 476.818 1207.42 477.109 1206.77 477.109ZM726.816 447.944C726.076 447.944 725.355 447.565 724.947 446.881C721.997 441.939 719.164 436.863 716.531 431.793C715.976 430.722 716.386 429.398 717.453 428.838C718.516 428.279 719.834 428.692 720.392 429.766C722.985 434.759 725.774 439.758 728.681 444.627C729.3 445.663 728.966 447.009 727.935 447.631C727.584 447.843 727.196 447.944 726.816 447.944ZM706.802 407.658C705.943 407.658 705.129 407.143 704.785 406.291C702.631 400.956 700.614 395.501 698.787 390.079C698.402 388.935 699.012 387.69 700.152 387.303C701.281 386.916 702.525 387.53 702.912 388.676C704.71 394.016 706.696 399.387 708.82 404.645C709.272 405.766 708.735 407.042 707.621 407.498C707.353 407.606 707.077 407.658 706.802 407.658Z" fill="#8C8C8C"/>
<path d="M693.182 364.632C692.193 364.632 691.3 363.953 691.064 362.943C690.397 360.078 689.769 357.206 689.187 354.328C688.947 353.144 689.708 351.987 690.886 351.747C692.061 351.508 693.213 352.267 693.451 353.456C694.026 356.292 694.644 359.12 695.303 361.943C695.577 363.121 694.851 364.299 693.681 364.575C693.513 364.613 693.348 364.632 693.182 364.632Z" fill="#8C8C8C"/>
<path d="M730.092 141.337C729.694 141.337 729.295 141.228 728.933 140.999C727.917 140.355 727.611 139.002 728.253 137.98C729.807 135.499 731.402 133.034 733.034 130.59C733.704 129.587 735.058 129.316 736.055 129.994C737.054 130.669 737.318 132.029 736.648 133.032C735.037 135.442 733.468 137.869 731.935 140.316C731.523 140.976 730.815 141.337 730.092 141.337Z" fill="#8C8C8C"/>
<path d="M1256.23 214.691C1255.29 214.691 1254.42 214.073 1254.14 213.117C1252.48 207.409 1250.62 201.681 1248.6 196.087C1248.2 194.952 1248.78 193.696 1249.91 193.284C1251.04 192.869 1252.29 193.461 1252.7 194.599C1254.74 200.274 1256.63 206.09 1258.32 211.885C1258.66 213.046 1258 214.263 1256.84 214.603C1256.64 214.663 1256.43 214.691 1256.23 214.691ZM1239.36 170.493C1238.55 170.493 1237.77 170.035 1237.4 169.253C1234.83 163.881 1232.07 158.532 1229.19 153.352C1228.6 152.298 1228.97 150.964 1230.02 150.372C1231.07 149.786 1232.4 150.16 1232.99 151.214C1235.91 156.47 1238.72 161.901 1241.32 167.354C1241.84 168.444 1241.39 169.753 1240.31 170.277C1240 170.425 1239.68 170.493 1239.36 170.493ZM1215.59 129.63C1214.9 129.63 1214.23 129.305 1213.8 128.696C1210.42 123.831 1206.83 119.001 1203.14 114.341C1202.4 113.394 1202.55 112.017 1203.49 111.264C1204.43 110.507 1205.8 110.668 1206.55 111.613C1210.29 116.345 1213.93 121.246 1217.37 126.186C1218.06 127.176 1217.82 128.54 1216.84 129.235C1216.46 129.501 1216.02 129.63 1215.59 129.63ZM752.308 110.519C751.82 110.519 751.326 110.355 750.92 110.015C749.995 109.243 749.868 107.861 750.635 106.931C754.455 102.303 758.482 97.7167 762.602 93.3011C763.424 92.4179 764.8 92.375 765.68 93.2029C766.556 94.0328 766.601 95.4182 765.778 96.2995C761.715 100.651 757.748 105.169 753.985 109.728C753.554 110.25 752.935 110.519 752.308 110.519ZM1185.59 93.1457C1185.02 93.1457 1184.45 92.9233 1184.03 92.481C1179.92 88.228 1175.62 84.0348 1171.24 80.0166C1170.35 79.2017 1170.29 77.8163 1171.1 76.9227C1171.91 76.0245 1173.29 75.9627 1174.18 76.7796C1178.62 80.8596 1182.99 85.1145 1187.15 89.4319C1187.99 90.3002 1187.97 91.6855 1187.1 92.5285C1186.68 92.9402 1186.13 93.1457 1185.59 93.1457ZM785.177 76.6313C784.571 76.6313 783.967 76.377 783.538 75.8827C782.747 74.9714 782.838 73.5881 783.744 72.7926C788.275 68.8134 792.978 64.9279 797.723 61.2434C798.682 60.5078 800.044 60.6853 800.777 61.6388C801.511 62.5969 801.334 63.9718 800.384 64.7113C795.707 68.3399 791.073 72.1675 786.61 76.0895C786.198 76.4537 785.685 76.6313 785.177 76.6313ZM1150.21 61.9452C1149.76 61.9452 1149.31 61.804 1148.92 61.5133C1144.17 57.966 1139.26 54.5253 1134.3 51.2837C1133.3 50.6249 1133.01 49.2675 1133.67 48.2535C1134.32 47.2421 1135.67 46.9533 1136.68 47.6141C1141.71 50.9052 1146.7 54.3972 1151.51 57.9979C1152.48 58.7185 1152.68 60.0915 1151.96 61.0619C1151.54 61.6395 1150.88 61.9452 1150.21 61.9452ZM823.006 48.433C822.279 48.433 821.568 48.0675 821.156 47.4002C820.521 46.3738 820.833 45.0242 821.854 44.3849C826.945 41.1966 832.209 38.1215 837.496 35.25C838.559 34.6704 839.877 35.0744 840.447 36.1352C841.018 37.1999 840.623 38.528 839.567 39.1029C834.356 41.9322 829.171 44.9598 824.154 48.1013C823.797 48.3263 823.399 48.433 823.006 48.433ZM1110.29 36.9033C1109.95 36.9033 1109.61 36.8266 1109.29 36.6594C1104.04 33.9375 1098.64 31.3436 1093.22 28.9488C1092.12 28.4636 1091.62 27.1719 1092.11 26.0643C1092.59 24.9567 1093.87 24.45 1094.97 24.9417C1100.47 27.371 1105.96 30.0032 1111.29 32.768C1112.36 33.3215 1112.78 34.6431 1112.23 35.717C1111.84 36.4714 1111.08 36.9033 1110.29 36.9033ZM864.859 26.7524C864.007 26.7524 863.197 26.2458 862.848 25.4035C862.386 24.2874 862.914 23.0068 864.024 22.5404C869.553 20.2289 875.242 18.0539 880.931 16.0825C882.073 15.691 883.308 16.2939 883.699 17.438C884.091 18.5821 883.487 19.8289 882.352 20.2224C876.748 22.1658 871.144 24.3063 865.695 26.5859C865.422 26.6991 865.137 26.7524 864.859 26.7524ZM1066.86 18.6952C1066.63 18.6952 1066.41 18.6607 1066.18 18.5885C1060.57 16.7557 1054.81 15.0751 1049.08 13.5915C1047.92 13.2897 1047.22 12.0949 1047.52 10.9248C1047.82 9.75281 1049.02 9.04972 1050.17 9.34891C1055.98 10.8565 1061.82 12.5626 1067.53 14.4234C1068.67 14.7954 1069.3 16.0312 1068.93 17.1817C1068.63 18.1073 1067.77 18.6952 1066.86 18.6952ZM909.645 12.1905C908.659 12.1905 907.764 11.5108 907.528 10.5034C907.253 9.32744 907.978 8.14696 909.147 7.86924C915.002 6.48128 920.965 5.26242 926.869 4.24714C928.081 4.05462 929.18 4.84356 929.382 6.0351C929.586 7.22859 928.789 8.35965 927.605 8.56258C921.788 9.56355 915.914 10.7648 910.147 12.1333C909.98 12.1717 909.812 12.1905 909.645 12.1905ZM1021.07 7.77297C1020.96 7.77297 1020.85 7.76453 1020.74 7.74697C1014.89 6.84486 1008.94 6.11576 1003.05 5.57657C1001.86 5.4673 1000.97 4.40064 1001.08 3.19674C1001.19 1.99284 1002.23 1.10114 1003.45 1.21431C1009.42 1.76195 1015.46 2.50405 1021.39 3.41917C1022.58 3.60323 1023.4 4.71933 1023.22 5.91477C1023.05 6.999 1022.12 7.77297 1021.07 7.77297ZM956.184 5.08682C955.051 5.08682 954.094 4.20357 954.016 3.05105C953.93 1.84325 954.834 0.79739 956.033 0.714139C962.011 0.290725 968.089 0.0513819 974.1 0H974.119C975.314 0 976.285 0.968456 976.296 2.1704C976.306 3.38081 975.34 4.36877 974.138 4.37917C968.216 4.43056 962.227 4.666 956.34 5.08031C956.286 5.08486 956.235 5.08682 956.184 5.08682Z" fill="#8C8C8C"/>
<path d="M1264.51 251.97C1263.45 251.97 1262.53 251.198 1262.36 250.118C1261.92 247.259 1261.43 244.404 1260.9 241.554C1260.68 240.365 1261.46 239.221 1262.64 238.999C1263.82 238.793 1264.96 239.564 1265.18 240.751C1265.72 243.644 1266.21 246.541 1266.66 249.443C1266.85 250.639 1266.04 251.759 1264.85 251.945C1264.73 251.962 1264.62 251.97 1264.51 251.97Z" fill="#8C8C8C"/>
<path d="M1200.39 288.608C1200.5 287.113 1199.66 285.707 1198.29 285.109L1159.27 268.057C1156.26 248.303 1150.09 228.889 1140.69 210.622L1162.22 173.744C1162.98 172.45 1162.84 170.817 1161.87 169.677L1128.69 130.669C1127.72 129.528 1126.14 129.133 1124.75 129.683L1085.19 145.371C1068.71 133.203 1050.6 124.066 1031.66 118.011L1020.96 76.5895C1020.58 75.1378 1019.33 74.0855 1017.84 73.969L966.962 69.9814C965.473 69.865 964.077 70.7098 963.483 72.0861L946.53 111.339C926.889 114.371 907.589 120.576 889.428 130.029L852.763 108.368C851.477 107.607 849.854 107.752 848.721 108.727L809.938 142.098C808.804 143.073 808.411 144.663 808.958 146.059L824.555 185.848C812.458 202.43 803.374 220.648 797.354 239.695L756.172 250.461C754.73 250.839 753.683 252.096 753.567 253.591L749.603 304.77C749.486 306.265 750.327 307.67 751.695 308.268L790.72 325.32C793.734 345.074 799.903 364.488 809.301 382.756L787.764 419.634C787.009 420.927 787.152 422.56 788.122 423.7L821.298 462.71C822.267 463.85 823.85 464.245 825.237 463.695L864.795 448.006C881.281 460.175 899.394 469.312 918.331 475.367L929.034 516.787C929.408 518.239 930.659 519.292 932.146 519.408L983.028 523.396C984.514 523.512 985.912 522.667 986.506 521.291L1003.46 482.038C1023.1 479.006 1042.4 472.801 1060.56 463.348L1097.23 485.011C1098.51 485.77 1100.14 485.625 1101.27 484.651L1140.05 451.281C1141.19 450.306 1141.58 448.715 1141.03 447.319L1125.44 407.531C1137.53 390.948 1146.62 372.73 1152.64 353.684L1193.82 342.917C1195.26 342.54 1196.31 341.283 1196.42 339.787L1200.39 288.608Z" fill="#8C8C8C"/>
<path opacity="0.7" d="M974.892 345.567C964.928 345.569 955.227 342.483 946.93 336.578C925.063 321.013 919.862 290.456 935.337 268.461C942.833 257.806 954.006 250.726 966.799 248.524C979.59 246.328 992.467 249.264 1003.06 256.802C1013.65 264.344 1020.69 275.581 1022.88 288.444C1025.07 301.311 1022.15 314.265 1014.65 324.918C1007.15 335.573 995.983 342.653 983.191 344.855C980.421 345.331 977.645 345.567 974.892 345.567ZM975.083 254.38C972.7 254.38 970.298 254.586 967.9 254.998C956.828 256.903 947.157 263.032 940.669 272.255C927.273 291.292 931.774 317.743 950.701 331.215C959.871 337.743 971.013 340.282 982.091 338.381C993.163 336.475 1002.83 330.347 1009.32 321.124C1015.81 311.901 1018.34 300.69 1016.45 289.553C1014.55 278.417 1008.46 268.69 999.287 262.164C992.103 257.051 983.708 254.38 975.083 254.38Z" fill="#EDEDED"/>
<path opacity="0.7" d="M974.112 423.856C970.785 423.856 967.442 423.725 964.09 423.462C930.424 420.825 899.796 405.158 877.848 379.348C858.083 356.111 847.485 327.156 847.485 296.9C847.485 293.552 847.615 290.19 847.877 286.816C850.5 252.955 866.075 222.149 891.736 200.07C917.392 177.994 950.063 167.287 983.729 169.926C1017.4 172.563 1048.02 188.23 1069.97 214.04C1075.83 220.929 1080.96 228.437 1085.21 236.351L1079.47 239.473C1075.43 231.967 1070.57 224.847 1065.01 218.31C1044.2 193.833 1015.15 178.976 983.223 176.474C951.299 173.993 920.315 184.127 895.98 205.061C871.647 225.999 856.876 255.215 854.386 287.327C854.14 290.525 854.016 293.713 854.016 296.889C854.016 325.581 864.068 353.042 882.81 375.08C903.625 399.555 932.671 414.412 964.597 416.914C996.545 419.418 1027.51 409.263 1051.84 388.326C1068.36 374.115 1080.71 355.706 1087.57 335.091L1093.77 337.178C1086.53 358.92 1073.5 378.334 1056.08 393.318C1032.98 413.196 1004.19 423.856 974.112 423.856Z" fill="#EDEDED"/>
<path d="M1477.01 511.429C1476.64 511.429 1476.25 511.33 1475.91 511.123C1474.87 510.507 1474.53 509.164 1475.14 508.123C1476.61 505.638 1478 503.1 1479.3 500.577C1479.85 499.503 1481.16 499.084 1482.23 499.635C1483.3 500.189 1483.72 501.511 1483.17 502.586C1481.83 505.185 1480.4 507.797 1478.89 510.355C1478.48 511.046 1477.76 511.429 1477.01 511.429Z" fill="#8C8C8C"/>
<path d="M1336.51 584.714C1336.45 584.714 1336.4 584.712 1336.34 584.707C1330.44 584.239 1324.5 583.417 1318.71 582.268C1317.53 582.032 1316.76 580.88 1316.99 579.695C1317.23 578.508 1318.38 577.734 1319.55 577.97C1325.18 579.09 1330.94 579.888 1336.68 580.341C1337.88 580.437 1338.77 581.492 1338.68 582.695C1338.59 583.843 1337.64 584.714 1336.51 584.714ZM1364.98 584.25C1363.89 584.25 1362.95 583.423 1362.82 582.304C1362.69 581.102 1363.55 580.018 1364.74 579.883C1370.47 579.237 1376.21 578.249 1381.79 576.945C1382.95 576.659 1384.13 577.401 1384.4 578.581C1384.67 579.76 1383.94 580.936 1382.77 581.209C1377.03 582.554 1371.13 583.572 1365.23 584.237C1365.15 584.245 1365.07 584.25 1364.98 584.25ZM1291.84 574.108C1291.57 574.108 1291.29 574.056 1291.02 573.947C1285.55 571.71 1280.14 569.118 1274.96 566.245C1273.9 565.661 1273.52 564.329 1274.1 563.271C1274.68 562.212 1276 561.829 1277.06 562.409C1282.09 565.199 1287.35 567.716 1292.66 569.888C1293.77 570.344 1294.31 571.622 1293.86 572.743C1293.51 573.592 1292.7 574.108 1291.84 574.108ZM1409.28 572.143C1408.45 572.143 1407.65 571.659 1407.29 570.847C1406.8 569.741 1407.29 568.448 1408.39 567.954C1413.64 565.596 1418.8 562.897 1423.73 559.935C1424.76 559.313 1426.1 559.653 1426.72 560.692C1427.34 561.732 1427 563.075 1425.97 563.695C1420.89 566.746 1415.57 569.524 1410.17 571.953C1409.88 572.083 1409.58 572.143 1409.28 572.143ZM1252.51 550.346C1252.02 550.346 1251.52 550.18 1251.12 549.838C1246.59 546.038 1242.22 541.915 1238.15 537.587C1237.32 536.709 1237.35 535.323 1238.23 534.491C1239.1 533.661 1240.48 533.695 1241.3 534.572C1245.27 538.78 1249.51 542.783 1253.9 546.476C1254.83 547.25 1254.95 548.632 1254.18 549.56C1253.75 550.079 1253.13 550.346 1252.51 550.346ZM1447.8 547.045C1447.21 547.045 1446.61 546.797 1446.18 546.314C1445.38 545.412 1445.46 544.026 1446.35 543.222L1447.63 542.061C1451.46 538.547 1455.14 534.799 1458.58 530.918C1459.38 530.009 1460.75 529.928 1461.65 530.737C1462.55 531.541 1462.63 532.924 1461.83 533.827C1458.3 537.823 1454.51 541.683 1450.57 545.299L1449.25 546.489C1448.84 546.861 1448.32 547.045 1447.8 547.045ZM1222.16 515.721C1221.44 515.721 1220.74 515.366 1220.32 514.711C1217.13 509.703 1214.21 504.449 1211.62 499.091C1211.1 498.002 1211.55 496.693 1212.63 496.165C1213.71 495.639 1215.01 496.092 1215.54 497.178C1218.05 502.381 1220.89 507.485 1223.99 512.35C1224.64 513.368 1224.34 514.721 1223.33 515.373C1222.97 515.61 1222.56 515.721 1222.16 515.721Z" fill="#8C8C8C"/>
<path d="M1203.64 473.381C1202.68 473.381 1201.8 472.733 1201.54 471.752C1200.79 468.906 1200.11 465.996 1199.53 463.107C1199.29 461.922 1200.05 460.767 1201.23 460.526C1202.4 460.285 1203.56 461.048 1203.79 462.235C1204.36 465.04 1205.02 467.864 1205.75 470.632C1206.06 471.799 1205.36 472.999 1204.2 473.309C1204.01 473.358 1203.83 473.381 1203.64 473.381Z" fill="#8C8C8C"/>
<path d="M1221.57 354.55C1221.17 354.55 1220.78 354.441 1220.41 354.212C1219.4 353.568 1219.09 352.217 1219.73 351.193C1221.3 348.695 1222.95 346.215 1224.66 343.818C1225.36 342.836 1226.72 342.608 1227.69 343.309C1228.67 344.013 1228.9 345.38 1228.2 346.363C1226.54 348.691 1224.94 351.102 1223.42 353.528C1223 354.189 1222.3 354.55 1221.57 354.55Z" fill="#8C8C8C"/>
<path d="M1486.02 375.846C1485.17 375.846 1484.37 375.346 1484.01 374.511C1481.81 369.281 1479.27 364.123 1476.47 359.181C1475.87 358.131 1476.24 356.793 1477.28 356.194C1478.32 355.595 1479.65 355.963 1480.25 357.013C1483.13 362.102 1485.75 367.413 1488.02 372.8C1488.49 373.912 1487.98 375.199 1486.87 375.672C1486.59 375.79 1486.3 375.846 1486.02 375.846ZM1462.26 337.214C1461.65 337.214 1461.04 336.954 1460.61 336.445C1459.5 335.132 1458.36 333.834 1457.19 332.549C1454.54 329.622 1451.73 326.767 1448.86 324.064C1447.98 323.237 1447.94 321.851 1448.76 320.968C1449.58 320.083 1450.96 320.038 1451.84 320.865C1454.79 323.647 1457.67 326.585 1460.41 329.598C1461.61 330.918 1462.78 332.254 1463.92 333.605C1464.7 334.527 1464.59 335.908 1463.67 336.693C1463.26 337.043 1462.76 337.214 1462.26 337.214ZM1244.79 325.984C1244.21 325.984 1243.64 325.758 1243.21 325.306C1242.38 324.429 1242.42 323.044 1243.29 322.21C1244.17 321.365 1245.06 320.527 1245.96 319.697C1249.36 316.575 1252.94 313.575 1256.6 310.78C1257.56 310.046 1258.92 310.232 1259.65 311.199C1260.38 312.161 1260.19 313.534 1259.23 314.266C1255.68 316.984 1252.2 319.898 1248.9 322.93C1248.02 323.739 1247.15 324.556 1246.29 325.378C1245.87 325.783 1245.33 325.984 1244.79 325.984ZM1428.18 307.415C1427.78 307.415 1427.38 307.306 1427.02 307.077C1422.24 304.039 1417.24 301.252 1412.15 298.793C1411.07 298.27 1410.61 296.963 1411.13 295.872C1411.65 294.781 1412.94 294.315 1414.03 294.846C1419.27 297.378 1424.43 300.247 1429.35 303.373C1430.36 304.021 1430.67 305.373 1430.02 306.395C1429.61 307.053 1428.9 307.415 1428.18 307.415ZM1281.73 299.851C1280.92 299.851 1280.15 299.406 1279.77 298.637C1279.24 297.553 1279.68 296.24 1280.75 295.701C1285.96 293.101 1291.38 290.776 1296.86 288.788C1298 288.381 1299.24 288.969 1299.65 290.108C1300.06 291.245 1299.47 292.5 1298.34 292.909C1293.01 294.84 1287.74 297.098 1282.69 299.623C1282.38 299.779 1282.05 299.851 1281.73 299.851ZM1386.81 289.252C1386.63 289.252 1386.44 289.228 1386.25 289.179C1380.79 287.721 1375.19 286.565 1369.59 285.747C1368.4 285.574 1367.57 284.461 1367.75 283.266C1367.92 282.067 1369.02 281.209 1370.22 281.414C1375.98 282.257 1381.75 283.444 1387.37 284.945C1388.53 285.255 1389.22 286.454 1388.92 287.624C1388.66 288.604 1387.78 289.252 1386.81 289.252ZM1324.74 286.048C1323.69 286.048 1322.76 285.279 1322.59 284.201C1322.4 283.006 1323.22 281.885 1324.4 281.697C1330.14 280.784 1336 280.196 1341.83 279.948C1343.03 279.923 1344.05 280.833 1344.09 282.044C1344.15 283.252 1343.21 284.272 1342.01 284.324C1336.35 284.563 1330.65 285.136 1325.08 286.021C1324.97 286.04 1324.85 286.048 1324.74 286.048Z" fill="#8C8C8C"/>
<path d="M1496.09 411.378C1495.04 411.378 1494.11 410.606 1493.94 409.526C1493.51 406.697 1492.98 403.845 1492.38 401.046C1492.13 399.863 1492.87 398.698 1494.05 398.443C1495.24 398.189 1496.38 398.942 1496.64 400.122C1497.25 403.002 1497.79 405.941 1498.25 408.851C1498.43 410.046 1497.62 411.166 1496.43 411.353C1496.32 411.37 1496.2 411.378 1496.09 411.378Z" fill="#8C8C8C"/>
<path d="M1463.16 429.134C1463.22 428.366 1462.79 427.644 1462.08 427.337L1442.04 418.578C1440.49 408.43 1437.32 398.458 1432.49 389.074L1443.55 370.131C1443.94 369.467 1443.87 368.628 1443.37 368.042L1426.33 348.003C1425.83 347.418 1425.02 347.215 1424.31 347.497L1403.99 355.556C1395.52 349.306 1386.21 344.612 1376.49 341.502L1370.99 320.224C1370.79 319.479 1370.15 318.939 1369.39 318.879L1343.25 316.831C1342.49 316.771 1341.77 317.205 1341.46 317.912L1332.76 338.075C1322.67 339.633 1312.75 342.82 1303.42 347.676L1284.59 336.548C1283.93 336.157 1283.1 336.232 1282.51 336.733L1262.59 353.875C1262.01 354.376 1261.81 355.193 1262.09 355.91L1270.1 376.348C1263.89 384.867 1259.22 394.225 1256.13 404.009L1234.97 409.539C1234.23 409.733 1233.7 410.379 1233.64 411.147L1231.6 437.437C1231.54 438.205 1231.97 438.927 1232.67 439.234L1252.72 447.993C1254.27 458.141 1257.44 468.113 1262.27 477.497L1251.2 496.441C1250.81 497.105 1250.89 497.944 1251.39 498.529L1268.43 518.568C1268.93 519.153 1269.74 519.356 1270.45 519.074L1290.77 511.015C1299.24 517.266 1308.54 521.959 1318.27 525.069L1323.77 546.346C1323.96 547.092 1324.61 547.633 1325.37 547.693L1351.51 549.741C1352.27 549.801 1352.99 549.367 1353.29 548.66L1362 528.497C1372.09 526.939 1382 523.752 1391.33 518.896L1410.17 530.023C1410.83 530.413 1411.66 530.339 1412.24 529.838L1432.16 512.697C1432.75 512.196 1432.95 511.379 1432.67 510.662L1424.66 490.224C1430.87 481.706 1435.54 472.348 1438.63 462.563L1459.78 457.033C1460.52 456.839 1461.06 456.194 1461.12 455.425L1463.16 429.134Z" fill="#8C8C8C"/>
<path opacity="0.7" d="M1347.32 459.991C1341.88 459.991 1336.58 458.306 1332.05 455.079C1320.1 446.575 1317.26 429.879 1325.71 417.862C1329.81 412.039 1335.91 408.171 1342.9 406.969C1349.89 405.765 1356.93 407.373 1362.71 411.492C1368.5 415.612 1372.35 421.751 1373.54 428.78C1374.74 435.811 1373.14 442.889 1369.04 448.709C1364.95 454.531 1358.84 458.4 1351.86 459.601C1350.34 459.863 1348.83 459.991 1347.32 459.991ZM1347.4 413.161C1341.12 413.161 1334.94 416.119 1331.04 421.655C1324.67 430.717 1326.81 443.306 1335.82 449.716C1340.18 452.823 1345.5 454.035 1350.75 453.127C1356.02 452.22 1360.63 449.304 1363.71 444.915C1366.8 440.525 1368.01 435.188 1367.1 429.889C1366.2 424.588 1363.3 419.959 1358.94 416.854C1355.44 414.359 1351.4 413.161 1347.4 413.161Z" fill="#EDEDED"/>
<path opacity="0.7" d="M1346.93 500.206C1345.18 500.206 1343.42 500.138 1341.65 499.999C1323.94 498.611 1307.82 490.366 1296.27 476.783C1285.56 464.197 1280.32 448.728 1280.33 433.332C1280.33 414.44 1288.22 395.655 1303.58 382.44C1331.45 358.453 1373.53 361.751 1397.37 389.792C1397.56 390.009 1397.74 390.232 1397.93 390.452C1400.51 393.574 1402.81 396.923 1404.78 400.432C1404.79 400.447 1404.8 400.46 1404.81 400.473C1404.84 400.526 1404.87 400.578 1404.9 400.629C1404.95 400.721 1405 400.813 1405.05 400.903C1405.08 400.954 1405.1 401.006 1405.13 401.055C1405.22 401.213 1405.3 401.373 1405.39 401.531L1399.64 404.653C1397.63 400.899 1395.19 397.336 1392.41 394.06C1377.18 376.158 1353.71 369.446 1332.39 374.721C1323.59 376.898 1315.16 381.116 1307.82 387.431C1293.97 399.351 1286.85 416.29 1286.85 433.328C1286.85 447.213 1291.57 461.163 1301.23 472.515C1322.73 497.796 1360.68 500.775 1385.82 479.144C1394.08 472.034 1400.26 462.822 1403.7 452.505L1409.89 454.592C1406.08 466.037 1399.23 476.251 1390.06 484.135C1377.91 494.595 1362.76 500.206 1346.93 500.206Z" fill="#EDEDED"/>
<path d="M923.015 735.127C928.382 730.071 935.638 727.558 942.964 728.22C1021.32 735.308 1167.51 697.345 1263.05 599.016C1269.69 592.188 1281.78 596.047 1289.39 601.763C1395.64 681.643 1571.78 698.185 1632.92 701.567C1645.57 702.267 1655.83 712.135 1657.14 724.81C1712.74 1265 1363.07 1460.74 1290.55 1495.3C1282.62 1499.07 1273.29 1498.53 1265.84 1493.86C904.393 1267.41 919.855 972.908 914.856 754.699C914.686 747.304 917.647 740.184 923.015 735.127Z" fill="#979797"/>
<path opacity="0.61" d="M1280.77 1456.06C1279.15 1456.06 1277.54 1455.6 1276.13 1454.7C1137.56 1365.6 1047.25 1259.08 1000.03 1129.06C957.854 1012.93 955.791 894.683 953.968 790.354L953.72 776.443C953.678 774.123 954.545 771.934 956.16 770.278C957.789 768.611 959.974 767.692 962.31 767.692H962.313C1048.13 767.692 1176.94 729.578 1271.41 644.431C1274.31 641.816 1278.6 641.502 1281.85 643.673C1385.66 712.95 1533.72 733.122 1612.75 738.98C1616.95 739.293 1620.27 742.59 1620.64 746.821C1639.01 957.595 1595.42 1135.83 1491.09 1276.57C1413.17 1381.68 1320.78 1436.45 1284.67 1455.12C1283.45 1455.75 1282.11 1456.06 1280.77 1456.06ZM1283.06 1451.97C1318.95 1433.41 1410.79 1378.97 1488.27 1274.45C1592.07 1134.43 1635.43 957.012 1617.14 747.13C1616.92 744.637 1614.96 742.693 1612.49 742.508C1533.12 736.624 1384.38 716.345 1279.91 646.62C1278 645.341 1275.46 645.525 1273.76 647.068C1178.59 732.838 1048.8 771.23 962.386 771.23H962.384C960.926 771.23 959.632 771.773 958.67 772.76C957.722 773.729 957.213 775.015 957.239 776.378L957.487 790.288C959.303 894.342 961.363 1012.28 1003.33 1127.85C1050.28 1257.11 1140.13 1363.05 1278.03 1451.72C1279.54 1452.69 1281.47 1452.79 1283.06 1451.97Z" fill="#EDEDED"/>
<path opacity="0.61" d="M1407.12 939.041H1390.77C1382.65 939.041 1376.08 932.423 1376.08 924.26V868.066C1376.08 847.952 1359.86 831.645 1339.87 831.645H1238.59C1218.59 831.645 1202.38 847.952 1202.38 868.066V924.26C1202.38 932.423 1195.8 939.041 1187.68 939.041H1171.34C1163.22 939.041 1156.64 932.423 1156.64 924.26V868.066C1156.64 822.544 1193.33 785.642 1238.59 785.642H1339.87C1385.12 785.642 1421.81 822.544 1421.81 868.066V924.26C1421.81 932.423 1415.23 939.041 1407.12 939.041Z" fill="white"/>
<path opacity="0.61" d="M1427.38 952.304H1151.08C1134.15 952.304 1120.42 966.109 1120.42 983.139V1196.42C1120.42 1213.45 1134.15 1227.26 1151.08 1227.26H1427.38C1444.31 1227.26 1458.03 1213.45 1458.03 1196.42V983.139C1458.03 966.109 1444.31 952.304 1427.38 952.304ZM1328.76 1158.45C1330.47 1165.63 1325.06 1172.54 1317.71 1172.54H1260.74C1253.39 1172.54 1247.98 1165.63 1249.69 1158.44L1262.99 1102.78C1247.3 1093.34 1237.04 1075.71 1238.09 1055.75C1239.44 1029.9 1260.27 1008.73 1285.96 1007.13C1315.72 1005.27 1340.44 1029 1340.44 1058.54C1340.44 1077.34 1330.42 1093.79 1315.46 1102.78L1328.76 1158.45Z" fill="white"/>
<path d="M230.124 882.581C230.124 882.581 252.502 883.771 255.246 930.079C255.246 930.079 203.355 976.868 133.261 988.005C127.999 988.841 140.618 951.873 142.515 946.867C151.541 923.04 179.967 907.695 230.124 882.581Z" fill="black"/>
<path d="M482.147 828.131H434.923C434.923 828.131 289.983 667.124 194.921 650.88C194.921 650.88 128.748 735.842 198.445 894.59C204.052 907.36 219.732 913.033 231.429 905.519C234.928 903.272 237.44 900.259 238.966 896.483L233.361 760.938C233.361 760.938 356.996 869.701 378.486 890.691C399.976 911.68 509.21 898.886 482.147 828.131Z" fill="#8C8C8C"/>
<path d="M25.5992 1166.17C45.388 1148.73 76.9183 1129.16 122.437 1123.55L137.83 1133.02C137.83 1133.02 128.014 1147.58 110.081 1162.97C93.6008 1172.6 68.1514 1185.64 47.0524 1188.46C26.54 1191.21 23.5151 1178.74 25.5992 1166.17Z" fill="black"/>
<path d="M142.514 946.867C154.705 950.836 160.068 968.209 191.002 956.72C220.931 945.605 243.18 931.272 254.627 923.005C254.882 925.245 255.097 927.584 255.245 930.08C255.245 930.08 200.532 982.425 130.438 993.561C125.176 994.398 121.005 989.114 122.903 984.106C126.306 975.122 132.443 961.494 142.514 946.867Z" fill="#8C8C8C"/>
<path d="M10.6911 1181.07C14.5922 1176.61 19.5713 1171.49 25.5992 1166.17C23.5144 1178.74 26.54 1191.21 47.0531 1188.46C68.1513 1185.64 93.6008 1172.6 110.082 1162.97C89.4255 1180.69 57.996 1199.5 18.3272 1198.39C9.51554 1198.14 4.86883 1187.72 10.6911 1181.07Z" fill="#8C8C8C"/>
<path d="M480.418 862.499L259.276 864.907C259.276 864.907 132.988 970.002 110.081 1130.26C110.081 1130.26 106.279 1142.04 129.107 1144.06C129.107 1144.06 205.46 1093.9 255.245 1005.22C316.29 896.483 437.227 945.43 437.227 945.43C495.328 958.327 541.571 953.528 575.413 901.146L480.418 862.499Z" fill="#8C8C8C"/>
<path d="M475.197 683.318C475.197 683.318 451.39 803.322 334.746 850.796L293.254 845.878L283.464 861.58L380.79 864.699C380.79 864.699 463.984 831.556 508.062 741.244C509.518 738.26 533.791 687.85 475.197 683.318Z" fill="#979797"/>
<path d="M462.439 860.537C462.439 860.537 489.511 786.519 495.329 714.598C495.329 714.598 475.524 697.478 463.145 690.092C459.136 687.7 457.623 682.641 459.649 678.418C468.75 659.454 523.79 584.992 527.912 583.957C550.322 578.332 642.227 534.378 706.955 623.433C734.734 661.653 701.443 779.304 575.414 901.146C534.861 907.787 496.947 896.034 462.439 860.537Z" fill="#979797"/>
<path d="M566.755 730.817C566.755 730.817 491.541 820.395 395.379 833.49C395.379 833.49 370.527 810.701 352.047 818.837C333.567 826.973 308.228 862.887 308.228 862.887H431.699C431.699 862.887 548.446 858.749 606.785 787.54C602.091 762.623 588.032 747.74 566.755 730.817Z" fill="#979797"/>
<path d="M610.633 521.127L627.089 576.336C627.844 578.865 626.912 581.605 624.746 583.097C616.823 588.554 596.114 599.409 567.707 588.861C564.457 587.654 562.231 584.602 561.95 581.13L558.048 533.035L610.633 521.127Z" fill="#979797"/>
<path d="M514.267 476.417C514.267 476.417 522.358 533.647 544.215 551.246C566.071 568.845 608.655 555.594 623.038 512.449L594.38 438.681L514.267 476.417Z" fill="#979797"/>
<path d="M597.609 486.417C595.946 486.957 594.205 485.885 593.946 484.148C593.157 478.864 591.188 468.41 587.2 461.288C587.2 461.288 589.286 453.78 568.334 465.122C547.383 476.464 515.915 493.126 497.387 483.204C479.324 473.531 461.027 424.848 508.766 433.867C510.582 434.211 512.252 432.755 512.116 430.901C511.53 422.9 512.319 404.492 530.852 398.584C548.194 393.055 557.69 400.929 561.602 405.682C562.753 407.081 564.889 407.053 565.987 405.611C571.182 398.789 585.291 384.269 606.061 393.475C623.169 401.059 625.83 411.657 625.548 418.262C625.456 420.402 627.615 421.853 629.549 420.956C634.788 418.529 643.216 417.268 651.289 427.442C662.45 441.507 646.5 453.704 641.716 456.902C640.932 457.426 640.445 458.295 640.439 459.242C640.394 466.556 639.261 498.463 623.363 516.461C621.986 518.019 619.442 517.562 618.64 515.64L606.398 486.303C605.83 484.94 604.319 484.243 602.921 484.696L597.609 486.417Z" fill="black"/>
<path d="M597.351 492.373C597.351 492.373 604.826 461.749 616.181 471.692C627.537 481.634 613.221 503.519 600.213 507.69L597.351 492.373Z" fill="#979797"/>
<path d="M314.444 869.838L259.006 683.877C256.744 676.291 250.043 670.908 242.188 670.368L167.339 665.217C159.73 664.693 154.071 672.168 156.597 679.406L218.572 856.997C220.569 862.718 225.676 866.762 231.673 867.371L305.38 875.604L314.444 869.838Z" fill="black"/>
<path d="M212.2 746.904C216.339 755.308 223.487 760.23 228.165 757.899C232.843 755.568 233.28 746.866 229.141 738.462C225.002 730.058 217.855 725.135 213.177 727.467C208.498 729.798 208.061 738.5 212.2 746.904Z" fill="#8C8C8C"/>
<path d="M305.38 875.603C305.5 875.603 305.621 875.601 305.742 875.594L462.795 867.609C466.677 867.413 469.665 864.087 469.469 860.182C469.273 856.276 465.952 853.206 462.083 853.469L305.03 861.453C301.148 861.65 298.16 864.976 298.356 868.881C298.547 872.664 301.656 875.603 305.38 875.603Z" fill="black"/>
<path d="M495.328 715.693C494.729 715.693 494.242 715.205 494.24 714.602C494.131 681.255 506.888 637.122 507.017 636.679C507.186 636.102 507.788 635.768 508.368 635.937C508.945 636.106 509.275 636.716 509.106 637.295C508.977 637.733 496.308 681.569 496.416 714.594C496.418 715.199 495.933 715.691 495.331 715.693H495.328Z" fill="black"/>
<path d="M566.753 731.912C566.517 731.912 566.279 731.835 566.079 731.676C565.609 731.302 565.528 730.614 565.9 730.139C566.243 729.701 600.38 686.051 612.064 656.271C612.284 655.708 612.912 655.422 613.477 655.655C614.036 655.877 614.31 656.512 614.09 657.074C602.287 687.154 567.955 731.057 567.609 731.495C567.394 731.769 567.075 731.912 566.753 731.912Z" fill="black"/>
<path d="M615.146 799.028L608.935 790.194C608.588 789.7 608.704 789.016 609.196 788.668C609.685 788.315 610.365 788.435 610.713 788.928L615.905 796.314C664.344 774.955 694.333 716.668 694.631 716.078C694.904 715.541 695.557 715.323 696.095 715.601C696.631 715.875 696.843 716.536 696.571 717.074C696.267 717.673 665.601 777.299 615.956 798.679L615.146 799.028Z" fill="black"/>
</svg>
